<?xml version="1.0" standalone="no"?>
<!DOCTYPE svg PUBLIC "-//W3C//DTD SVG 20010904//EN"
 "http://www.w3.org/TR/2001/REC-SVG-20010904/DTD/svg10.dtd">
<svg version="1.0" xmlns="http://www.w3.org/2000/svg"
 width="512.000000pt" height="512.000000pt" viewBox="0 0 512.000000 512.000000"
 preserveAspectRatio="xMidYMid meet">

<g transform="translate(0.000000,512.000000) scale(0.100000,-0.100000)"
fill="#000000" stroke="none">
<path d="M2400 4953 c-283 -30 -551 -161 -761 -372 -181 -181 -288 -372 -352
-631 -20 -81 -21 -116 -24 -794 l-4 -709 41 -131 c153 -481 423 -946 674
-1157 170 -144 299 -200 471 -207 120 -4 191 9 291 53 71 32 69 23 -3 -13
-378 -189 -774 -19 -1158 497 -128 172 -285 451 -371 659 l-39 94 -45 -6 c-25
-3 -70 -18 -100 -34 -130 -64 -170 -232 -110 -450 l18 -65 -37 -51 c-93 -126
-170 -287 -209 -437 -35 -133 -44 -249 -40 -534 l3 -270 27 -51 c40 -76 70
-107 140 -145 l63 -34 1685 0 1685 0 63 34 c70 38 100 69 140 145 l27 51 3
278 c3 218 0 302 -13 390 -29 203 -115 413 -233 569 l-54 72 17 71 c67 278
-19 443 -242 462 l-69 6 -37 -50 c-20 -28 -81 -93 -135 -145 -277 -265 -648
-418 -921 -378 -281 40 -518 227 -770 606 -156 234 -265 488 -313 727 -30 148
-32 408 -5 537 71 331 231 590 456 735 509 329 1117 -26 1256 -736 26 -132 30
-324 11 -458 -58 -390 -268 -707 -561 -847 -204 -98 -404 -97 -613 1 -104 50
-104 50 -14 -72 158 -212 358 -373 510 -410 86 -20 263 -20 359 1 239 52 470
184 670 383 l103 101 -18 39 c-15 35 -18 107 -23 813 -5 740 -7 779 -27 860
-93 383 -325 684 -662 864 -212 113 -499 166 -750 139z m1774 -3527 c52 -91
100 -217 124 -326 14 -61 17 -131 17 -377 0 -289 -1 -303 -21 -329 -11 -15
-33 -37 -48 -48 -27 -21 -36 -21 -809 -23 -671 -1 -771 1 -705 12 403 68 808
378 1170 896 41 58 101 151 134 207 69 118 64 118 138 -12z m-3135 51 c13 -23
65 -105 116 -182 365 -550 793 -889 1212 -960 68 -11 -24 -13 -694 -12 -762 2
-772 2 -799 23 -69 51 -69 50 -72 332 -4 332 9 431 78 609 30 80 115 233 128
233 4 0 18 -19 31 -43z"/>
</g>
</svg>
